<mxfile host="app.diagrams.net" modified="2021-05-16T04:38:06.060Z" agent="5.0 (X11; Linux x86_64) AppleWebKit/537.36 (KHTML, like Gecko) Chrome/89.0.4389.114 Safari/537.36" etag="F5JOdvYiivpRCgm0VcPR" version="14.5.10" type="github">
  <diagram id="R2lEEEUBdFMjLlhIrx00" name="Page-1">
    <mxGraphModel dx="1568" dy="820" grid="1" gridSize="10" guides="1" tooltips="1" connect="1" arrows="1" fold="1" page="1" pageScale="1" pageWidth="850" pageHeight="1100" math="0" shadow="0" extFonts="Permanent Marker^https://fonts.googleapis.com/css?family=Permanent+Marker">
      <root>
        <mxCell id="0" />
        <mxCell id="1" parent="0" />
        <mxCell id="Kj5tHRV5BTcvr7k8qjbD-10" value="DEPARTEMENT" style="swimlane;childLayout=stackLayout;horizontal=1;startSize=30;horizontalStack=0;rounded=1;fontSize=14;fontStyle=0;strokeWidth=2;resizeParent=0;resizeLast=1;shadow=0;dashed=0;align=center;" vertex="1" parent="1">
          <mxGeometry x="690" y="200" width="230" height="250" as="geometry" />
        </mxCell>
        <mxCell id="Kj5tHRV5BTcvr7k8qjbD-11" value="departement_id &#xa;name                 &#xa;population            &#xa;area                      &#xa;total_cases           &#xa;total_vaccinated_first_dose&#xa;total_vaccinated_second_dose&#xa;number_hospitals     &#xa;number_vaccination_center       &#xa;total_reanimations           &#xa;total_deaths           &#xa;total_back_home " style="align=left;strokeColor=none;fillColor=none;spacingLeft=4;fontSize=14;verticalAlign=top;resizable=0;rotatable=0;part=1;" vertex="1" parent="Kj5tHRV5BTcvr7k8qjbD-10">
          <mxGeometry y="30" width="230" height="220" as="geometry" />
        </mxCell>
        <mxCell id="Kj5tHRV5BTcvr7k8qjbD-12" value="HOSPITAL" style="swimlane;childLayout=stackLayout;horizontal=1;startSize=30;horizontalStack=0;rounded=1;fontSize=14;fontStyle=0;strokeWidth=2;resizeParent=0;resizeLast=1;shadow=0;dashed=0;align=center;" vertex="1" parent="1">
          <mxGeometry x="1040" y="235" width="230" height="180" as="geometry" />
        </mxCell>
        <mxCell id="Kj5tHRV5BTcvr7k8qjbD-13" value="hospital_id                 &#xa;name            &#xa;area                      &#xa;total_rea_beds           &#xa;total_patients&#xa;occupied_rea_beds&#xa;total_deaths     &#xa;total_back_home " style="align=left;strokeColor=none;fillColor=none;spacingLeft=4;fontSize=14;verticalAlign=top;resizable=0;rotatable=0;part=1;" vertex="1" parent="Kj5tHRV5BTcvr7k8qjbD-12">
          <mxGeometry y="30" width="230" height="150" as="geometry" />
        </mxCell>
        <mxCell id="Kj5tHRV5BTcvr7k8qjbD-14" value="VACCINATION CENTER" style="swimlane;childLayout=stackLayout;horizontal=1;startSize=30;horizontalStack=0;rounded=1;fontSize=14;fontStyle=0;strokeWidth=2;resizeParent=0;resizeLast=1;shadow=0;dashed=0;align=center;" vertex="1" parent="1">
          <mxGeometry x="350" y="255" width="230" height="140" as="geometry" />
        </mxCell>
        <mxCell id="Kj5tHRV5BTcvr7k8qjbD-15" value="center_id&#xa;name            &#xa;total_vaccinated_first_dose                      &#xa;total_vaccinated_second_dose           " style="align=left;strokeColor=none;fillColor=none;spacingLeft=4;fontSize=14;verticalAlign=top;resizable=0;rotatable=0;part=1;" vertex="1" parent="Kj5tHRV5BTcvr7k8qjbD-14">
          <mxGeometry y="30" width="230" height="110" as="geometry" />
        </mxCell>
        <mxCell id="Kj5tHRV5BTcvr7k8qjbD-39" style="edgeStyle=orthogonalEdgeStyle;rounded=0;orthogonalLoop=1;jettySize=auto;html=1;exitX=0.5;exitY=0;exitDx=0;exitDy=0;entryX=0.5;entryY=1;entryDx=0;entryDy=0;fontSize=14;startArrow=ERzeroToMany;startFill=1;endArrow=ERone;endFill=0;" edge="1" parent="1" source="Kj5tHRV5BTcvr7k8qjbD-16" target="Kj5tHRV5BTcvr7k8qjbD-11">
          <mxGeometry relative="1" as="geometry" />
        </mxCell>
        <mxCell id="Kj5tHRV5BTcvr7k8qjbD-16" value="TEST" style="swimlane;childLayout=stackLayout;horizontal=1;startSize=30;horizontalStack=0;rounded=1;fontSize=14;fontStyle=0;strokeWidth=2;resizeParent=0;resizeLast=1;shadow=0;dashed=0;align=center;" vertex="1" parent="1">
          <mxGeometry x="745" y="570" width="120" height="100" as="geometry" />
        </mxCell>
        <mxCell id="Kj5tHRV5BTcvr7k8qjbD-17" value="date_attribut                 &#xa;number_tests            &#xa;number_positif                          " style="align=left;strokeColor=none;fillColor=none;spacingLeft=4;fontSize=14;verticalAlign=top;resizable=0;rotatable=0;part=1;" vertex="1" parent="Kj5tHRV5BTcvr7k8qjbD-16">
          <mxGeometry y="30" width="120" height="70" as="geometry" />
        </mxCell>
        <mxCell id="Kj5tHRV5BTcvr7k8qjbD-40" style="edgeStyle=orthogonalEdgeStyle;rounded=0;orthogonalLoop=1;jettySize=auto;html=1;exitX=0.5;exitY=0;exitDx=0;exitDy=0;entryX=0.5;entryY=1;entryDx=0;entryDy=0;fontSize=14;startArrow=ERzeroToMany;startFill=1;endArrow=ERone;endFill=0;" edge="1" parent="1" source="Kj5tHRV5BTcvr7k8qjbD-18" target="Kj5tHRV5BTcvr7k8qjbD-12">
          <mxGeometry relative="1" as="geometry" />
        </mxCell>
        <mxCell id="Kj5tHRV5BTcvr7k8qjbD-18" value="HOSPITALIZATION" style="swimlane;childLayout=stackLayout;horizontal=1;startSize=30;horizontalStack=0;rounded=1;fontSize=14;fontStyle=0;strokeWidth=2;resizeParent=0;resizeLast=1;shadow=0;dashed=0;align=center;" vertex="1" parent="1">
          <mxGeometry x="1040" y="550" width="230" height="130" as="geometry" />
        </mxCell>
        <mxCell id="Kj5tHRV5BTcvr7k8qjbD-19" value="date_attribut                 &#xa;hospitalized            &#xa;reanimation_admissions                      &#xa;reanimation_deaths           &#xa;reanimation_back_home" style="align=left;strokeColor=none;fillColor=none;spacingLeft=4;fontSize=14;verticalAlign=top;resizable=0;rotatable=0;part=1;" vertex="1" parent="Kj5tHRV5BTcvr7k8qjbD-18">
          <mxGeometry y="30" width="230" height="100" as="geometry" />
        </mxCell>
        <mxCell id="Kj5tHRV5BTcvr7k8qjbD-20" value="VACCINE" style="swimlane;childLayout=stackLayout;horizontal=1;startSize=30;horizontalStack=0;rounded=1;fontSize=14;fontStyle=0;strokeWidth=2;resizeParent=0;resizeLast=1;shadow=0;dashed=0;align=center;" vertex="1" parent="1">
          <mxGeometry x="160" y="60" width="130" height="80" as="geometry" />
        </mxCell>
        <mxCell id="Kj5tHRV5BTcvr7k8qjbD-21" value="vaccine_id&#xa;name                 " style="align=left;strokeColor=none;fillColor=none;spacingLeft=4;fontSize=14;verticalAlign=top;resizable=0;rotatable=0;part=1;" vertex="1" parent="Kj5tHRV5BTcvr7k8qjbD-20">
          <mxGeometry y="30" width="130" height="50" as="geometry" />
        </mxCell>
        <mxCell id="Kj5tHRV5BTcvr7k8qjbD-22" value="DELIVERY" style="swimlane;childLayout=stackLayout;horizontal=1;startSize=30;horizontalStack=0;rounded=1;fontSize=14;fontStyle=0;strokeWidth=2;resizeParent=0;resizeLast=1;shadow=0;dashed=0;align=center;" vertex="1" parent="1">
          <mxGeometry x="165" y="285" width="120" height="80" as="geometry" />
        </mxCell>
        <mxCell id="Kj5tHRV5BTcvr7k8qjbD-23" value="date_attribut                 &#xa;number_doses           " style="align=left;strokeColor=none;fillColor=none;spacingLeft=4;fontSize=14;verticalAlign=top;resizable=0;rotatable=0;part=1;" vertex="1" parent="Kj5tHRV5BTcvr7k8qjbD-22">
          <mxGeometry y="30" width="120" height="50" as="geometry" />
        </mxCell>
        <mxCell id="Kj5tHRV5BTcvr7k8qjbD-24" value="VACCINATION" style="swimlane;childLayout=stackLayout;horizontal=1;startSize=30;horizontalStack=0;rounded=1;fontSize=14;fontStyle=0;strokeWidth=2;resizeParent=0;resizeLast=1;shadow=0;dashed=0;align=center;" vertex="1" parent="1">
          <mxGeometry x="160" y="460" width="170" height="100" as="geometry" />
        </mxCell>
        <mxCell id="Kj5tHRV5BTcvr7k8qjbD-25" value="date_attribut                 &#xa;number_first_dose&#xa;number_second_dose" style="align=left;strokeColor=none;fillColor=none;spacingLeft=4;fontSize=14;verticalAlign=top;resizable=0;rotatable=0;part=1;" vertex="1" parent="Kj5tHRV5BTcvr7k8qjbD-24">
          <mxGeometry y="30" width="170" height="70" as="geometry" />
        </mxCell>
        <mxCell id="Kj5tHRV5BTcvr7k8qjbD-26" value="STOCK" style="swimlane;childLayout=stackLayout;horizontal=1;startSize=30;horizontalStack=0;rounded=1;fontSize=14;fontStyle=0;strokeWidth=2;resizeParent=0;resizeLast=1;shadow=0;dashed=0;align=center;" vertex="1" parent="1">
          <mxGeometry x="500" y="60" width="160" height="67" as="geometry" />
        </mxCell>
        <mxCell id="Kj5tHRV5BTcvr7k8qjbD-27" value="number_doses_available" style="align=left;strokeColor=none;fillColor=none;spacingLeft=4;fontSize=14;verticalAlign=top;resizable=0;rotatable=0;part=1;" vertex="1" parent="Kj5tHRV5BTcvr7k8qjbD-26">
          <mxGeometry y="30" width="160" height="37" as="geometry" />
        </mxCell>
        <mxCell id="Kj5tHRV5BTcvr7k8qjbD-30" style="edgeStyle=orthogonalEdgeStyle;rounded=0;orthogonalLoop=1;jettySize=auto;html=1;exitX=0.5;exitY=1;exitDx=0;exitDy=0;fontSize=14;endArrow=ERzeroToMany;endFill=1;startArrow=ERone;startFill=0;" edge="1" parent="1" source="Kj5tHRV5BTcvr7k8qjbD-21" target="Kj5tHRV5BTcvr7k8qjbD-22">
          <mxGeometry relative="1" as="geometry" />
        </mxCell>
        <mxCell id="Kj5tHRV5BTcvr7k8qjbD-31" style="edgeStyle=orthogonalEdgeStyle;rounded=0;orthogonalLoop=1;jettySize=auto;html=1;exitX=0;exitY=0.25;exitDx=0;exitDy=0;entryX=1;entryY=0.25;entryDx=0;entryDy=0;fontSize=14;startArrow=ERzeroToMany;startFill=1;endArrow=ERone;endFill=0;" edge="1" parent="1" source="Kj5tHRV5BTcvr7k8qjbD-27" target="Kj5tHRV5BTcvr7k8qjbD-21">
          <mxGeometry relative="1" as="geometry" />
        </mxCell>
        <mxCell id="Kj5tHRV5BTcvr7k8qjbD-32" style="edgeStyle=orthogonalEdgeStyle;rounded=0;orthogonalLoop=1;jettySize=auto;html=1;exitX=1;exitY=0.25;exitDx=0;exitDy=0;entryX=-0.013;entryY=0.312;entryDx=0;entryDy=0;entryPerimeter=0;fontSize=14;startArrow=ERzeroToMany;startFill=1;endArrow=ERone;endFill=0;" edge="1" parent="1" source="Kj5tHRV5BTcvr7k8qjbD-23" target="Kj5tHRV5BTcvr7k8qjbD-15">
          <mxGeometry relative="1" as="geometry">
            <Array as="points">
              <mxPoint x="318" y="328" />
              <mxPoint x="347" y="328" />
            </Array>
          </mxGeometry>
        </mxCell>
        <mxCell id="Kj5tHRV5BTcvr7k8qjbD-33" style="edgeStyle=orthogonalEdgeStyle;rounded=0;orthogonalLoop=1;jettySize=auto;html=1;exitX=0.5;exitY=1;exitDx=0;exitDy=0;fontSize=14;startArrow=ERzeroToMany;startFill=1;endArrow=ERone;endFill=0;" edge="1" parent="1" source="Kj5tHRV5BTcvr7k8qjbD-27" target="Kj5tHRV5BTcvr7k8qjbD-14">
          <mxGeometry relative="1" as="geometry" />
        </mxCell>
        <mxCell id="Kj5tHRV5BTcvr7k8qjbD-34" style="edgeStyle=orthogonalEdgeStyle;rounded=0;orthogonalLoop=1;jettySize=auto;html=1;exitX=1;exitY=0;exitDx=0;exitDy=0;entryX=0.5;entryY=1;entryDx=0;entryDy=0;fontSize=14;startArrow=ERzeroToMany;startFill=1;endArrow=ERone;endFill=0;" edge="1" parent="1" source="Kj5tHRV5BTcvr7k8qjbD-25" target="Kj5tHRV5BTcvr7k8qjbD-15">
          <mxGeometry relative="1" as="geometry">
            <Array as="points">
              <mxPoint x="465" y="490" />
            </Array>
          </mxGeometry>
        </mxCell>
        <mxCell id="Kj5tHRV5BTcvr7k8qjbD-36" style="edgeStyle=orthogonalEdgeStyle;rounded=0;orthogonalLoop=1;jettySize=auto;html=1;exitX=0;exitY=0.25;exitDx=0;exitDy=0;entryX=0;entryY=0.25;entryDx=0;entryDy=0;fontSize=14;startArrow=ERzeroToMany;startFill=1;endArrow=ERone;endFill=0;" edge="1" parent="1" source="Kj5tHRV5BTcvr7k8qjbD-25" target="Kj5tHRV5BTcvr7k8qjbD-21">
          <mxGeometry relative="1" as="geometry">
            <Array as="points">
              <mxPoint x="100" y="508" />
              <mxPoint x="100" y="103" />
            </Array>
          </mxGeometry>
        </mxCell>
        <mxCell id="Kj5tHRV5BTcvr7k8qjbD-38" style="edgeStyle=orthogonalEdgeStyle;rounded=0;orthogonalLoop=1;jettySize=auto;html=1;exitX=1;exitY=0.5;exitDx=0;exitDy=0;entryX=0;entryY=0.5;entryDx=0;entryDy=0;fontSize=14;startArrow=ERzeroToMany;startFill=1;endArrow=ERone;endFill=0;" edge="1" parent="1" source="Kj5tHRV5BTcvr7k8qjbD-15" target="Kj5tHRV5BTcvr7k8qjbD-11">
          <mxGeometry relative="1" as="geometry" />
        </mxCell>
        <mxCell id="Kj5tHRV5BTcvr7k8qjbD-41" style="edgeStyle=orthogonalEdgeStyle;rounded=0;orthogonalLoop=1;jettySize=auto;html=1;exitX=0;exitY=0.5;exitDx=0;exitDy=0;entryX=1;entryY=0.5;entryDx=0;entryDy=0;fontSize=14;startArrow=ERzeroToMany;startFill=1;endArrow=ERone;endFill=0;" edge="1" parent="1" source="Kj5tHRV5BTcvr7k8qjbD-13" target="Kj5tHRV5BTcvr7k8qjbD-11">
          <mxGeometry relative="1" as="geometry" />
        </mxCell>
      </root>
    </mxGraphModel>
  </diagram>
</mxfile>
